<?xml version="1.0" encoding="UTF-8" standalone="no"?>
<!-- Created with Inkscape (http://www.inkscape.org/) -->

<svg
   xmlns:dc="http://purl.org/dc/elements/1.1/"
   xmlns:cc="http://creativecommons.org/ns#"
   xmlns:rdf="http://www.w3.org/1999/02/22-rdf-syntax-ns#"
   xmlns:svg="http://www.w3.org/2000/svg"
   xmlns="http://www.w3.org/2000/svg"
   xmlns:sodipodi="http://sodipodi.sourceforge.net/DTD/sodipodi-0.dtd"
   xmlns:inkscape="http://www.inkscape.org/namespaces/inkscape"
   width="620mm"
   height="220mm"
   viewBox="0 0 620 220"
   version="1.1"
   id="svg8"
   inkscape:version="0.92.2 (5c3e80d, 2017-08-06)"
   sodipodi:docname="top.svg">
  <defs
     id="defs2" />
  <sodipodi:namedview
     id="base"
     pagecolor="#ffffff"
     bordercolor="#666666"
     borderopacity="1.0"
     inkscape:pageopacity="0.0"
     inkscape:pageshadow="2"
     inkscape:zoom="0.35"
     inkscape:cx="1253.9742"
     inkscape:cy="251.00964"
     inkscape:document-units="mm"
     inkscape:current-layer="layer1"
     showgrid="true"
     inkscape:window-width="1366"
     inkscape:window-height="715"
     inkscape:window-x="0"
     inkscape:window-y="0"
     inkscape:window-maximized="1">
    <inkscape:grid
       type="xygrid"
       id="grid29"
       units="mm"
       spacingx="1"
       spacingy="1" />
  </sodipodi:namedview>
  <metadata
     id="metadata5">
    <rdf:RDF>
      <cc:Work
         rdf:about="">
        <dc:format>image/svg+xml</dc:format>
        <dc:type
           rdf:resource="http://purl.org/dc/dcmitype/StillImage" />
        <dc:title></dc:title>
      </cc:Work>
    </rdf:RDF>
  </metadata>
  <g
     inkscape:label="Layer 1"
     inkscape:groupmode="layer"
     id="layer1"
     transform="translate(0,-77)">
    <path
       d="m 363.5844,274.63956 c 1.02356,2.09751 2.28817,4.78237 1.0038,7.03327 -1.84545,1.81917 -4.83275,1.64385 -7.213,1.37427 -3.28763,-0.69043 -5.91329,-3.31614 -6.93467,-6.46784 4.4142,0.92931 9.12642,-0.25224 13.14387,-1.9397 m -65.39051,-1.90901 c 5.31934,3.27664 12.00195,2.41529 17.74867,0.8811 0.53058,2.45257 -2.29476,3.92103 -4.37909,3.7303 -0.35537,-0.72765 -0.83507,-2.23556 -1.94629,-1.66572 -6.37135,2.31234 -13.42655,3.8904 -20.13986,2.37584 -0.66409,-0.0634 -0.74957,-0.41626 -0.18825,-0.82624 2.43281,-2.16324 5.54288,-3.58348 8.61132,-4.67501 l 0.21248,0.12922 z m 5.47056,-61.22619 c 13.37834,5.0366 28.52764,5.25578 42.05509,0.58959 2.52706,4.06784 4.76044,8.33075 6.49847,12.82603 5.30841,13.3433 9.11325,27.29589 11.28749,41.48302 0.0745,1.97039 0.51255,4.81306 -1.62192,5.86072 -3.70184,1.40491 -8.05024,2.6279 -11.94933,1.19889 -3.33802,-1.40055 -4.51497,-5.05635 -5.62837,-8.1686 -5.09798,-12.9773 -12.53458,-24.85215 -19.48895,-36.89791 -0.52374,-0.61134 -1.01262,-2.45474 -2.04929,-1.71833 -0.28517,1.46187 0.80655,2.90405 1.16819,4.30236 0.85259,1.51667 -0.5722,3.12101 -0.73205,4.7013 -2.80763,10.57295 -5.08263,21.38913 -5.52977,32.35659 -0.1926,0.93372 0.54362,2.55999 -0.85911,2.65859 -5.15718,1.6285 -11.1034,2.8098 -16.21231,0.52374 -0.83947,-0.28517 -1.50132,-0.80655 -1.2712,-1.77755 -0.67509,-17.34541 2.66952,-34.49138 3.75005,-51.74471 0.0876,-2.11503 0.0497,-4.23005 0.13792,-6.34508 l 0.23671,0.0808 z m 45.62982,-13.25347 c 1.98791,2.77694 5.24043,4.60922 8.60914,5.0476 -1.65254,1.69858 -2.70021,4.75167 -1.06736,6.77904 0.86352,0.94683 2.82732,1.89583 3.6558,0.39699 0.70136,-1.19671 -0.59643,-2.41311 -1.76214,-2.32986 -0.59146,-0.55667 -0.0124,-1.65037 0.24106,-2.29911 0.33736,-0.74958 1.22075,-1.89807 2.03389,-1.0038 1.75561,1.12656 2.5534,3.60976 1.26244,5.38948 -0.61818,0.88328 -0.78462,2.32322 -1.75997,2.8295 -3.55714,0.49329 -7.25463,0.0124 -10.78331,-0.58525 -1.9748,-3.96482 -3.50899,-8.90065 -1.25586,-13.12411 0.21062,-0.28517 0.53679,-1.17913 0.82624,-1.10023 m 1.21641,-20.74045 c 1.44441,0.32865 2.90629,0.71453 4.34623,0.97535 -4.36375,4.14456 -6.09085,10.27045 -7.1341,16.0391 -0.31127,0.79784 0.7364,1.61098 -0.28082,2.13695 -0.88986,1.4948 -0.83941,0.5896 -0.69478,-0.71888 0.46658,-6.264 1.66789,-12.50607 3.62293,-18.45445 z m -99.1148,-20.79301 c 3.75881,0.0373 7.85075,0.24975 11.05513,2.41529 1.40266,1.00162 -0.20192,2.78352 -1.37862,3.06844 -3.87499,1.07612 -8.16208,0.47341 -11.77184,-1.14409 -1.54954,-0.42993 -2.18958,-2.95667 -0.46037,-3.62293 0.78244,-0.43428 1.64161,-0.73647 2.55558,-0.71671 m 20.88726,-7.14286 c 2.04271,5.93739 -1.25586,12.36578 -5.55605,16.40733 -0.56102,0.9249 -1.6175,0.53057 -2.43722,0.33301 4.54342,-2.57527 6.1741,-8.05901 6.44367,-12.98607 0.32866,-1.25368 1.30413,-2.34732 1.43124,-3.70842 l 0.0497,-0.24355 z m -20.13117,-1.22523 c 3.90133,0.0621 7.71712,1.73151 10.73517,4.16873 0.97752,0.83506 1.65037,2.74842 0.14662,3.43003 -0.99063,0.94683 -2.10844,-0.37277 -3.22401,-0.4231 -3.57913,-0.9139 -7.46947,-1.44429 -11.07923,-0.60699 -1.27344,-0.71888 -3.89033,-2.56216 -2.16547,-4.07448 1.41148,-1.59557 3.44761,-2.46568 5.58674,-2.49419 m 22.14094,-1.12216 c 8.27602,2.15889 16.98817,1.8849 25.46803,1.29531 2.75066,-0.21248 5.4969,-0.5896 8.21246,-0.92708 -0.96001,3.82237 0.21931,8.14667 3.23941,10.72859 -0.45602,6.85353 -1.92435,13.61722 -2.30793,20.49492 -0.46223,4.74074 0.18639,9.60201 -0.70571,14.27261 -0.52374,0.44919 -1.56494,-0.34605 -2.18958,-0.40135 -1.99667,-0.8263 -3.99552,-1.82352 -5.78182,-2.9786 -1.0586,-9.28634 -2.39554,-18.80293 -0.91173,-28.1222 0.2541,-0.6816 0.54797,-2.38018 -0.70136,-1.97256 -1.1485,0.77809 -1.03667,2.68927 -2.67834,2.77259 -8.55435,3.14734 -17.63033,5.20974 -26.79179,4.44923 4.18184,-4.44265 7.25904,-10.86228 5.58456,-17.06489 -0.24354,-0.94466 -0.62463,-1.83887 -1.03673,-2.71779 0.19943,0.0621 0.40135,0.11618 0.60078,0.17085 m 69.37733,-0.21683 c 11.12527,5.26896 21.04948,13.29509 27.92936,23.52174 0.91396,1.65478 2.34079,3.40816 2.4087,5.35227 -2.6761,7.9363 -5.86507,15.85066 -10.71324,22.74588 -0.89203,0.835 -1.49473,2.58621 -2.96102,2.29911 -4.24322,0.31313 -8.4952,-2.18734 -10.20472,-6.10836 1.0345,-5.17036 2.43064,-10.85135 6.42616,-14.55754 1.14191,-1.3063 3.11448,-1.22522 4.28484,-2.41752 -1.19447,-1.15944 -3.06844,-1.22952 -4.5807,-1.77966 -5.03442,-1.24933 -10.71323,-1.92218 -14.55977,-5.72261 -0.62898,-0.75399 -1.71392,0.10748 -1.06077,0.87445 1.56929,2.64106 4.37909,4.30019 7.05085,5.47497 -1.67889,5.04101 -2.7068,10.31655 -3.48271,15.52847 -5.84973,1.65037 -11.88796,3.21749 -18.01173,3.38846 -1.95499,0.16216 -2.52489,-2.13261 -2.44598,-3.66021 -0.33736,-8.20152 0.69701,-16.38329 1.43342,-24.53436 0.26528,-1.56706 0.22552,-3.42568 1.12874,-4.76044 6.31003,-1.56053 12.30663,-5.43987 15.61396,-11.13403 0.79778,-1.42466 1.29971,-2.99612 1.54301,-4.61139 z m -7.44971,-3.601 c 1.69423,0.7364 3.72594,1.27996 5.03442,2.56433 -0.46906,3.50023 -2.94132,6.41522 -5.44645,8.74067 -3.10355,2.65635 -6.84042,4.44483 -10.77462,5.39825 -2.40653,1.43118 -2.29694,4.7144 -2.73749,7.14944 -0.81095,8.6048 -1.99667,17.25557 -1.49256,25.90634 0.12488,2.46791 1.66571,5.04759 4.29361,5.38513 3.91444,0.45168 7.81577,-0.62463 11.66224,-1.24492 2.44163,-0.44483 5.00814,-1.23175 7.3226,-1.73803 -0.24355,4.50838 -0.29138,9.09132 0.81754,13.48576 -13.70712,4.87003 -29.37153,4.28268 -42.66004,-1.50356 -0.83282,-4.74292 -1.44652,-9.55815 -2.03388,-14.32735 2.78569,1.30407 5.74013,3.20867 8.95103,2.71991 2.41747,-1.06519 2.04489,-4.22788 2.14572,-6.3977 -0.0124,-7.27656 0.21061,-14.56188 1.25151,-21.77488 0.24354,-3.43227 1.23827,-6.89963 0.81748,-10.33848 -1.55612,-1.70076 -3.28763,-3.53527 -3.47389,-5.99878 -0.15097,-1.08711 -0.0559,-2.20051 0.14662,-3.27228 1.53643,0.87675 3.14076,1.63285 4.38568,2.93039 4.58946,3.57255 11.7455,4.94453 16.63311,1.22517 2.87336,-2.15883 4.21029,-5.62619 5.15712,-8.90724 z m -84.30962,-3.58349 c 3.75222,0.12053 7.78067,1.18137 10.53126,3.84213 1.47946,1.5189 0.59395,4.0131 -0.79337,5.29741 -4.12704,-2.3057 -9.37624,-3.98893 -13.88245,-1.75121 -0.96442,0.68602 -1.42249,-1.03008 -1.86304,-1.66789 -1.0476,-2.07774 0.41626,-4.37909 2.47009,-5.05635 1.11346,-0.46658 2.33421,-0.62004 3.53751,-0.66409 m 63.61086,-0.6378 c -1.00822,0.22366 -2.03836,0.23671 -3.04652,0.0789 -0.97534,1.00604 0.74299,2.10191 1.62844,2.35397 1.15944,0.10313 3.03334,0.25659 3.56156,-1.03015 0.0311,-1.00163 -1.30625,-1.51232 -2.14348,-1.40273 m 10.25292,-7.25245 c 0.83289,-0.0249 0.18204,0.82413 -0.24105,1.0038 -3.58349,2.41312 -8.0349,3.73912 -12.36578,3.13424 -2.18082,-0.50635 -4.89414,-1.52549 -6.16099,-3.13424 3.40157,0.94025 7.04861,1.68547 10.57512,1.07836 2.7419,-0.61134 5.40924,-1.65478 8.19277,-2.08216 m -1.50356,-4.19936 c -1.02797,0.31126 -0.10935,1.5824 -0.27399,2.07992 -4.94676,3.01589 -11.57023,4.06572 -16.88081,1.38738 0.18204,-0.75174 -0.43179,-1.83445 -1.17695,-1.06077 -1.21858,0.78244 -2.00326,2.31011 -1.34793,3.72594 0.50385,0.89862 1.05201,2.47668 2.29911,2.29694 0.38333,-0.22987 0.37711,-0.87669 0.86358,-0.2802 4.27167,2.84926 10.04032,3.62076 14.71751,1.3019 1.60216,-0.65316 2.91064,-1.97474 4.46458,-2.61696 0.58711,0.52374 -0.006,2.33645 1.28438,1.91342 1.70299,-1.66789 1.56929,-4.97087 -0.42744,-6.40429 -1.09153,-0.79561 -2.11727,-2.18951 -3.52217,-2.34297 m 14.803,-3.967 c -1.05201,0.29573 -0.1665,1.42242 0.42061,1.692 0.69919,0.48025 1.01921,2.29035 2.12602,1.48821 0.28082,-1.42025 -1.12874,-3.11889 -2.54681,-3.18021 m -79.66089,-1.06525 c 2.12378,-0.1752 2.84925,2.55117 2.16541,4.1665 -0.83724,2.70462 -2.31011,5.84538 -0.67726,8.54776 1.99232,3.26135 5.77524,4.86351 7.66455,8.24973 1.93311,2.72873 2.05799,6.54451 -0.11618,9.13736 -0.40135,0.85041 -2.1523,1.5693 -1.39397,2.63231 0.43614,0.65967 1.59558,-0.73423 1.1923,0.38333 -0.54113,4.03938 -2.8536,8.37902 -7.11434,9.38282 -2.26848,0.46907 -4.74298,0.33301 -6.95002,-0.47528 3.35336,0.27399 7.44754,0.66626 9.95708,-2.01201 1.27778,-1.30407 1.50573,-3.63611 0.13357,-4.93142 1.86074,-1.00169 2.36484,-3.46302 1.315,-5.24491 -0.44483,-0.94683 -1.2164,-1.71169 -2.00102,-2.38895 1.84763,-2.02519 2.62131,-5.38731 0.74734,-7.64479 -1.99667,-2.58186 -5.40042,-3.4783 -8.27378,-4.51497 -2.94573,-3.95613 -3.69966,-10.26616 0.25659,-13.79261 0.82848,-0.72771 1.91342,-1.40497 3.09473,-1.4948 m 79.86262,-2.183 c -1.10681,0.34606 -0.13606,1.48822 0.55231,1.71617 1.38297,0.84817 1.96816,2.4438 3.11007,3.48047 1.24927,0.25659 0.84824,-1.46846 0.36594,-2.03395 -0.81748,-1.49039 -2.22462,-3.06403 -4.02839,-3.16269 m -12.78439,-4.61139 c -1.19454,0.0988 -2.70245,0.26964 -3.44327,1.31066 -0.23484,1.34793 1.55395,1.09587 2.3605,1.3852 1.82134,0.38333 2.92598,2.15007 4.62021,2.70239 1.26027,-0.21683 0.61818,-1.92653 0.48212,-2.76594 -0.43614,-1.78848 -2.19176,-2.93916 -4.01969,-2.63231 m -8.4053,-0.80219 c -1.41149,0.79778 -1.64379,2.75941 -2.71997,3.91885 -1.06077,1.87173 -3.16486,3.00488 -3.84864,5.09363 -0.0963,1.73362 1.34134,3.1561 2.48543,4.28484 0.835,0.83942 2.50513,0.24541 2.21362,-1.03455 -0.30008,-1.26021 -1.86515,-2.32104 -1.01474,-3.71719 1.48381,-2.49419 3.14729,-5.08921 3.56156,-8.00861 -0.0311,-0.32866 -0.33736,-0.61383 -0.67726,-0.53927 z m -9.0146,-0.69254 c -1.8652,0.46036 -2.1085,2.93691 -1.94845,4.54783 0.0124,1.14626 1.15719,2.85584 2.39994,1.86956 1.49697,-1.41149 1.6613,-3.99335 0.74081,-5.7643 -0.26715,-0.38768 -0.69918,-0.7123 -1.1923,-0.65309 m 1.1682,-6.20921 c -1.29096,0.25659 -2.286,1.39615 -2.85149,2.52265 0.67508,1.21864 1.91124,-0.39265 2.90629,-0.3417 0.98187,0.20378 1.70734,0.0373 1.36321,-1.04326 -0.10065,-0.67943 -0.70571,-1.24927 -1.41801,-1.1375 m 17.35857,-0.31375 c -0.9841,-0.0249 -2.16106,1.44653 -0.99069,2.05806 1.65696,0.51069 2.766,1.90683 4.00434,2.95009 1.18571,0.12487 0.41874,-1.42901 0.0497,-1.97257 -0.70577,-1.14409 -1.42683,-3.10572 -3.06409,-3.03558 m -25.11936,-0.75616 c 0.58276,0.70354 1.33693,1.26903 2.19827,1.55836 -0.68602,0.92049 -1.29313,2.36925 -1.8849,3.05527 -0.81966,-1.39179 -1.16596,-3.23066 -0.39886,-4.72105 l 0.0857,0.10935 z m 24.30853,-5.27989 c 2.05805,1.41584 3.60541,3.89251 6.20044,4.31554 2.91281,-0.0833 6.07774,-1.15285 8.82833,0.14662 0.0559,1.69424 -1.33917,3.20649 -2.14131,4.65961 -1.24933,1.15285 -0.87451,1.96821 0.49765,2.66299 1.47281,1.10681 3.05527,2.61255 3.91003,4.01962 -1.25145,-1.36103 -2.87336,-2.77693 -4.76702,-2.93691 -1.08271,0.79778 0.68384,1.60874 1.26244,2.10626 1.60216,1.23393 2.9545,2.80981 3.87064,4.62022 -1.27344,-1.72493 -2.8208,-3.57914 -4.96211,-4.1227 -1.1485,0.20627 -0.38768,1.46411 0.31126,1.75562 1.8608,1.62185 3.75664,3.56596 4.61357,5.83438 -1.01691,0.87234 -1.76431,1.66789 -0.26529,2.51612 1.46629,1.16379 2.15231,3.45196 0.74082,4.94459 -1.15502,1.33911 -2.91499,2.84702 -4.79989,2.5424 -1.17037,-0.0559 -1.23834,1.66572 -1.97915,2.34298 -2.25531,3.37305 -5.59109,5.74889 -8.76478,8.173 -0.53492,0.84159 0.63564,1.60216 1.33259,1.03009 0.69043,-0.12488 2.40435,-1.53643 2.31228,-0.84383 -1.27338,3.78074 -4.88755,6.80538 -9.01242,6.50729 -1.4597,0.0186 -2.90405,-0.34419 -4.26292,-0.84164 1.64161,-0.0497 3.4542,0.29386 5.00156,-0.25846 0.65533,-0.74516 -0.32679,-1.49691 -1.11998,-1.26679 -6.03388,0.17769 -12.24749,-2.04929 -16.04792,-6.83825 -5.1155,-6.26617 -6.19827,-15.00684 -4.67502,-22.80285 0.81755,-4.12922 2.32987,-8.33081 5.07829,-11.56582 3.24377,-0.93149 5.42893,-3.57907 7.51109,-6.06892 1.17037,-1.30624 2.64983,0.38582 3.82461,0.81755 2.47008,1.08053 5.24919,0.10064 7.28091,-1.45312 0.0721,-0.0186 0.15532,-0.15345 0.22117,0.002 z m 1.55835,-12.622242 c 2.53582,0.262802 3.64922,3.265699 6.07768,3.88816 1.16819,0.497645 2.90188,-0.313747 3.76981,0.686018 2.46567,3.583483 5.21633,6.963124 8.67928,9.619534 3.14517,3.04869 3.05093,7.9801 2.36708,11.99978 -0.35972,1.67889 -0.91614,3.64922 -1.67447,4.97745 -0.8219,-3.3446 -3.143,-6.14347 -5.795,-8.23656 1.65037,-1.92876 3.89034,-4.40979 2.84273,-7.14945 -1.19012,-2.43722 -4.3835,-2.37366 -6.70019,-2.10409 -1.72928,0.105 -3.42568,1.08053 -5.12644,0.76933 -2.17641,-1.43341 -3.05309,-4.699113 -5.81251,-5.225151 -2.62572,-0.298215 -4.16208,3.353361 -6.88646,2.327631 -1.67448,-0.76492 -3.89251,-1.775313 -5.57798,-0.45167 -2.17858,1.95945 -3.54186,4.92706 -6.45026,5.99442 -1.47287,0.81754 -3.75887,0.71888 -4.40979,-1.0937 -1.08711,-2.70456 -0.6575,-5.869425 0.66192,-8.365854 0.33735,1.915594 2.16323,3.447614 4.13797,2.967608 3.82902,-0.892034 5.8739,-4.876617 9.48807,-6.185095 1.49257,-0.434275 2.58844,1.659191 4.15333,0.870165 2.45915,-1.214231 3.33801,-4.856922 6.25523,-5.288712 z M 328.18241,87.0051 c -3.21525,0.287032 -4.77143,3.548382 -6.8426,5.531944 -1.29313,-0.802198 -2.88653,-1.407138 -4.40761,-0.762746 -3.53745,1.255856 -5.47932,5.15495 -9.16364,6.077676 -1.58681,-0.0789 -1.64819,-2.228968 -1.6723,-3.436613 0.13793,-0.797786 -0.58959,-1.345756 -1.23399,-0.762746 -2.93909,1.547361 -3.66014,5.264544 -3.76098,8.326405 -0.1839,1.27561 0.75175,2.68051 -0.31375,3.67996 -1.67447,2.62349 -0.78026,6.0952 1.02139,8.436 -3.79615,9.36313 -3.13858,20.91578 2.99171,29.13041 0.56102,0.72764 1.15503,1.41366 1.76873,2.09309 -10.12147,1.32383 -20.6221,1.98792 -30.65808,-0.17955 -1.57582,-0.48894 -3.39281,-0.78685 -4.74292,-1.68106 -1.73579,-3.16045 -4.49086,-5.49025 -7.16479,-7.8267 -1.87608,-1.53637 -1.67883,-4.21905 -0.7123,-6.22014 1.1923,-2.61037 1.4707,-6.37576 -1.07612,-8.25625 -2.16324,-1.62192 -5.28865,-0.67291 -7.15168,0.97969 -4.05032,3.23501 -4.64867,9.23378 -2.70239,13.80579 0.24789,0.58711 0.54797,1.20982 0.86352,1.73803 -3.22183,-0.13793 -6.98288,0.46223 -8.92693,3.30291 -1.76437,2.45915 -0.71671,5.81034 1.12874,7.82894 -1.1923,1.10681 -2.07116,2.75936 -1.42465,4.4032 0.53057,1.3019 1.63067,2.23556 2.7112,3.04434 -2.03612,1.94846 -0.86134,5.09798 0.76275,6.8864 3.38622,3.49582 8.58721,4.94458 13.36082,4.43613 10.08636,3.2788 21.10645,1.81035 31.06794,-1.26903 1.54295,-0.45788 3.05744,-1.0148 4.59822,-1.47505 -1.15944,8.84803 -0.37463,17.83199 0.44049,26.68002 0.54548,6.72207 1.87831,13.36523 2.42187,20.07413 0.0764,13.74223 -1.88925,27.39679 -2.52488,41.10827 -0.30878,6.01635 -0.38582,12.0524 0.0833,18.06211 -3.46296,1.67013 -7.60317,2.40436 -10.29244,5.30623 -1.37421,1.48381 -0.74082,4.06131 1.13097,4.80648 4.86345,2.39777 10.66062,1.4049 15.65118,-0.0944 2.16982,-0.69919 4.2498,-1.65695 6.21796,-2.80322 0.50199,1.85198 2.72438,1.62186 4.20818,1.35446 2.78787,-0.41005 5.20757,-3.00265 4.80424,-5.93522 0.0559,-1.31065 2.30352,-1.23392 1.43783,-3.18021 -0.0833,-10.6124 2.5424,-21.04072 5.75765,-31.06353 0.39886,-0.47341 0.60699,-3.34236 1.18137,-2.0076 5.97249,10.63868 12.10279,21.25108 16.14875,32.79938 0.81313,2.15224 2.44157,3.90345 4.09853,5.35221 0.87451,5.52759 5.08487,10.75704 10.81407,11.60744 2.57968,0.36594 5.36973,-0.31561 7.50233,-1.78406 2.40212,-1.74245 2.50513,-5.1703 1.37856,-7.68208 -0.48895,-1.44652 -1.25368,-2.7747 -1.89142,-4.1599 2.17858,-3.13635 1.23175,-7.25246 0.72323,-10.75921 -2.74184,-15.12303 -6.90616,-30.06849 -13.25564,-44.07153 -0.45789,-0.98845 -0.97311,-1.93752 -1.44435,-2.92157 3.59006,-0.20626 7.37739,0.34171 10.84476,-0.65532 1.30624,-1.04984 1.74679,-2.87336 2.55333,-4.29361 1.46629,-2.6082 0.0311,-5.88707 -2.01636,-7.51768 4.6706,-4.18184 7.18014,-10.20913 9.8102,-15.78276 1.59123,-3.76316 3.18239,-7.62287 4.32213,-11.48468 -0.47528,-3.07503 -2.41753,-5.74237 -4.10735,-8.28918 -8.57628,-11.78719 -20.94864,-20.67249 -34.66012,-25.52935 1.3019,-1.13533 2.48543,-2.42846 3.41251,-3.91227 3.60982,-0.80437 7.32918,-3.65803 7.44095,-7.64262 0.13171,-1.54077 -0.71447,-2.95226 -1.42683,-4.16866 2.20492,-2.85143 2.90405,-6.50947 3.93419,-9.89352 0.97094,-4.72546 0.99064,-10.37135 -2.43063,-14.12581 -3.17145,-2.641061 -6.11495,-5.621778 -8.33522,-9.106664 -0.77368,-1.433419 -2.33639,-2.204863 -3.94948,-1.985737 -2.60379,0.331143 -3.85747,-2.559924 -5.9287,-3.561552 -0.71664,-0.401347 -1.55388,-0.61134 -2.37584,-0.569714"
       style="fill:#000000;fill-opacity:1;fill-rule:nonzero;stroke:none;stroke-width:0.35277772"
       id="path36"
       inkscape:connector-curvature="0" />
  </g>
</svg>
