<?xml version="1.0" encoding="UTF-8" standalone="no"?>
<!-- Created with Inkscape (http://www.inkscape.org/) -->

<svg
   xmlns:dc="http://purl.org/dc/elements/1.1/"
   xmlns:cc="http://creativecommons.org/ns#"
   xmlns:rdf="http://www.w3.org/1999/02/22-rdf-syntax-ns#"
   xmlns:svg="http://www.w3.org/2000/svg"
   xmlns="http://www.w3.org/2000/svg"
   xmlns:sodipodi="http://sodipodi.sourceforge.net/DTD/sodipodi-0.dtd"
   xmlns:inkscape="http://www.inkscape.org/namespaces/inkscape"
   width="620mm"
   height="220mm"
   viewBox="0 0 620 220"
   version="1.1"
   id="svg8"
   inkscape:version="0.92.2 (5c3e80d, 2017-08-06)"
   sodipodi:docname="bottom.svg">
  <defs
     id="defs2" />
  <sodipodi:namedview
     id="base"
     pagecolor="#ffffff"
     bordercolor="#666666"
     borderopacity="1.0"
     inkscape:pageopacity="0.0"
     inkscape:pageshadow="2"
     inkscape:zoom="0.175"
     inkscape:cx="1647.5996"
     inkscape:cy="545.39084"
     inkscape:document-units="mm"
     inkscape:current-layer="layer1"
     showgrid="true"
     inkscape:window-width="1366"
     inkscape:window-height="715"
     inkscape:window-x="0"
     inkscape:window-y="0"
     inkscape:window-maximized="1">
    <inkscape:grid
       type="xygrid"
       id="grid29"
       units="mm"
       spacingx="1"
       spacingy="1" />
  </sodipodi:namedview>
  <metadata
     id="metadata5">
    <rdf:RDF>
      <cc:Work
         rdf:about="">
        <dc:format>image/svg+xml</dc:format>
        <dc:type
           rdf:resource="http://purl.org/dc/dcmitype/StillImage" />
        <dc:title></dc:title>
      </cc:Work>
    </rdf:RDF>
  </metadata>
  <g
     inkscape:label="Layer 1"
     inkscape:groupmode="layer"
     id="layer1"
     transform="translate(0,-77)">
    <g
       style="fill:#000000;stroke:none;stroke-width:2.46225476"
       transform="matrix(0.01432742,0,0,-0.01432742,104.83836,277.89686)"
       id="g10">
      <path
         inkscape:connector-curvature="0"
         d="m 14030,11999 c -850,-42 -1708,-272 -2455,-658 -318,-165 -506,-285 -877,-563 -234,-174 -254,-192 -542,-479 l -298,-299 H 7625 c -1996,0 -2242,-2 -2316,-16 -113,-21 -454,-134 -556,-183 -189,-91 -378,-252 -436,-370 -30,-61 -32,-72 -32,-171 0,-98 2,-110 32,-170 39,-80 80,-120 208,-205 200,-132 456,-239 700,-292 l 120,-26 690,-7 c 380,-5 832,-14 1005,-20 173,-7 639,-15 1035,-20 539,-6 732,-11 768,-21 l 49,-13 -7,-45 c -13,-89 -55,-239 -134,-471 -44,-130 -89,-285 -101,-345 -27,-143 -46,-224 -71,-311 l -21,-71 -411,-7 c -1197,-19 -2409,-28 -4507,-35 l -2325,-8 -95,-27 C 1052,7118 859,7027 680,6912 578,6847 427,6697 386,6622 c -27,-51 -28,-59 -24,-161 3,-97 6,-113 36,-173 38,-78 91,-128 232,-223 238,-159 507,-259 870,-322 72,-13 413,-16 2280,-23 2173,-7 2692,-11 4019,-31 571,-8 688,-12 712,-25 16,-8 29,-16 29,-17 0,-1 27,-137 59,-302 33,-165 81,-372 106,-460 73,-247 85,-294 91,-371 l 7,-71 -214,-7 c -593,-19 -1121,-27 -2234,-32 -810,-3 -1242,-9 -1285,-16 -132,-22 -451,-149 -585,-233 -232,-144 -347,-283 -367,-443 -18,-149 17,-240 130,-338 215,-186 509,-330 813,-398 249,-56 210,-54 1774,-60 1311,-5 2006,-14 2654,-34 l 224,-7 84,-90 c 46,-50 112,-126 145,-170 172,-225 689,-675 1073,-935 860,-581 1858,-920 2919,-991 219,-14 695,-7 916,15 408,41 826,122 1183,231 159,48 680,243 815,305 117,54 168,81 382,205 642,370 1154,785 1523,1231 60,72 121,138 135,145 23,12 391,15 2257,20 l 2230,5 110,22 c 342,67 602,179 830,357 44,35 99,83 122,107 l 43,44 1,149 c 3,254 -18,293 -251,470 -165,126 -392,239 -585,291 -94,25 -119,27 -430,35 -181,5 -395,14 -475,20 -80,6 -626,14 -1215,19 -959,7 -1366,16 -1609,36 l -79,6 6,92 c 4,58 18,134 40,211 19,66 51,179 71,250 20,72 53,218 72,325 47,262 63,343 70,349 3,3 902,6 1997,6 1546,-1 2201,-5 2927,-19 1125,-21 1990,-19 2142,7 365,63 678,183 979,379 l 106,68 13,58 c 16,76 24,272 15,357 l -7,67 -91,92 c -55,55 -133,119 -193,159 -164,109 -419,220 -654,284 l -95,27 -2275,7 c -2162,7 -3558,19 -4464,39 -224,5 -410,11 -412,13 -7,6 -70,270 -119,497 -25,118 -64,267 -86,330 -65,187 -70,210 -76,326 l -6,112 179,6 c 476,18 1034,27 2074,31 661,4 1177,10 1235,16 299,31 615,145 876,318 115,76 158,124 205,226 48,104 42,197 -21,323 -45,89 -110,160 -200,220 -103,69 -461,245 -574,282 -183,60 -138,58 -1691,64 -1454,5 -2675,20 -2923,35 -132,8 -140,10 -175,38 -20,16 -91,97 -158,179 -92,114 -140,164 -206,214 -47,36 -127,105 -179,154 -248,236 -688,543 -1109,773 -225,123 -293,155 -348,161 -26,3 -60,15 -77,27 -66,49 -173,94 -460,191 -704,239 -1446,341 -2215,303 z m 845,-460 c 757,-86 1387,-282 2055,-640 92,-49 172,-89 177,-89 15,0 287,-189 468,-325 416,-312 704,-598 1008,-1000 255,-337 500,-744 620,-1030 219,-523 353,-1019 413,-1530 23,-190 26,-840 6,-1035 -52,-498 -165,-959 -346,-1420 -75,-189 -272,-588 -379,-765 -77,-128 -301,-439 -450,-625 -81,-100 -452,-469 -602,-599 -700,-603 -1559,-1015 -2495,-1195 -377,-73 -442,-78 -986,-83 -461,-4 -499,-3 -640,17 -677,97 -1083,203 -1550,406 -478,207 -850,426 -1201,706 -186,149 -273,228 -503,458 -280,279 -390,415 -654,808 -111,166 -159,249 -270,474 -282,572 -434,1043 -518,1610 -21,143 -23,185 -23,643 0,450 2,506 23,690 61,519 245,1129 486,1615 154,309 450,762 648,992 35,40 90,107 123,147 100,124 231,256 383,384 79,67 183,155 230,196 198,168 550,415 693,486 41,21 143,76 228,122 219,122 253,136 627,278 406,153 870,258 1389,314 44,5 256,9 470,10 334,1 416,-2 570,-20 z M 9450,9514 c 0,-9 -48,-90 -145,-244 -51,-80 -107,-173 -126,-207 l -34,-63 H 7371 5597 l -161,36 c -249,55 -466,134 -568,206 -44,30 -37,62 20,98 91,58 268,140 342,159 73,19 127,20 2148,20 1139,1 2072,-2 2072,-5 z m 13988,-120 c 70,-25 159,-61 197,-79 86,-41 218,-132 210,-146 -11,-16 -195,-105 -288,-138 -49,-17 -133,-40 -187,-51 -96,-20 -136,-20 -1972,-20 h -1873 l -51,83 c -29,45 -77,128 -108,183 -31,56 -72,125 -91,154 -19,29 -35,54 -35,56 0,2 916,4 2035,4 h 2035 z M 8480,6486 v -234 l -31,-26 -31,-26 H 5167 c -2859,0 -3259,2 -3312,15 -33,9 -116,19 -185,25 -217,15 -391,62 -592,157 -109,52 -118,58 -118,84 0,45 67,93 210,151 69,28 152,59 185,69 57,17 239,18 3593,18 l 3532,1 z m 18721,95 c 94,-24 222,-73 367,-141 103,-49 112,-55 112,-80 0,-26 -8,-32 -107,-75 -60,-26 -155,-64 -213,-84 l -105,-36 -3547,-3 -3548,-2 v 220 220 h 3483 c 3395,0 3486,0 3558,-19 z M 9036,3903 c 78,-127 254,-472 254,-498 0,-3 -843,-5 -1872,-5 H 5545 l -178,30 c -200,33 -334,66 -440,109 -108,43 -247,128 -247,152 0,13 128,94 202,128 69,30 200,75 263,90 23,5 833,9 1960,10 1819,1 1921,0 1931,-16 z m 14366,-91 c 109,-25 248,-72 323,-109 71,-35 205,-125 199,-135 -9,-15 -130,-77 -218,-112 -100,-41 -232,-78 -381,-109 -99,-21 -123,-21 -2058,-24 l -1957,-3 6,27 c 12,55 62,150 141,270 45,67 89,144 98,172 l 17,51 1866,-3 1867,-3 z"
         id="path4"
         style="stroke-width:2.46225476" />
      <path
         inkscape:connector-curvature="0"
         d="m 13818,10105 c -417,-57 -871,-198 -1256,-390 -397,-198 -649,-382 -988,-720 -340,-339 -537,-608 -718,-980 -166,-341 -263,-651 -342,-1090 l -36,-200 5,-345 c 4,-289 8,-368 26,-485 88,-568 269,-1058 546,-1480 131,-199 416,-555 542,-676 115,-111 418,-347 593,-462 467,-306 1005,-511 1513,-577 89,-11 217,-30 283,-40 158,-26 533,-28 634,-4 36,8 113,19 171,24 698,62 1471,397 2059,893 254,214 490,486 718,827 63,94 250,467 317,630 132,320 210,648 235,975 6,83 18,180 26,217 27,128 21,208 -57,767 -22,161 -98,468 -158,642 -125,361 -303,686 -574,1044 -117,153 -482,526 -632,642 -118,92 -339,241 -470,315 -415,236 -917,406 -1393,472 -147,21 -894,21 -1044,1 z m 1137,-508 c 560,-119 1020,-325 1400,-626 196,-155 361,-299 399,-347 23,-29 89,-112 148,-186 168,-210 268,-368 397,-628 170,-340 222,-508 298,-950 70,-413 54,-739 -62,-1195 -88,-350 -169,-560 -315,-820 -156,-280 -301,-468 -549,-715 -313,-312 -597,-513 -916,-646 -60,-26 -155,-66 -210,-89 -241,-102 -504,-168 -775,-194 -63,-7 -146,-19 -185,-28 -273,-61 -1048,54 -1466,217 -289,114 -352,144 -531,252 -234,141 -315,197 -395,269 -36,32 -111,95 -168,139 -115,89 -137,112 -335,365 -175,222 -227,301 -323,485 -177,339 -290,656 -346,965 -16,88 -21,171 -24,414 -6,364 3,517 43,713 168,820 642,1563 1291,2025 241,171 527,326 766,417 211,79 554,170 738,196 33,4 260,7 505,6 l 445,-2 z"
         id="path6"
         style="stroke-width:2.46225476" />
      <path
         inkscape:connector-curvature="0"
         d="m 14060,8183 c -599,-64 -1158,-463 -1425,-1018 -281,-583 -232,-1259 130,-1800 182,-272 414,-475 710,-620 224,-110 398,-156 662,-177 333,-26 615,27 903,172 334,167 555,357 743,638 190,283 289,589 304,932 21,515 -174,1004 -543,1360 -367,354 -789,523 -1294,518 -85,-1 -171,-3 -190,-5 z m 475,-369 c 109,-18 297,-80 392,-127 268,-136 517,-386 654,-660 46,-90 100,-247 124,-357 25,-115 31,-392 11,-513 -44,-269 -171,-533 -353,-739 -181,-204 -379,-335 -631,-418 -174,-57 -258,-70 -451,-70 -197,0 -299,15 -462,70 -204,68 -345,146 -507,282 -238,200 -417,509 -477,821 -21,108 -20,422 1,540 19,109 71,270 122,381 182,387 577,693 1015,785 121,26 429,28 562,5 z"
         id="path8"
         style="stroke-width:2.46225476" />
    </g>
  </g>
</svg>
